<mxfile host="app.diagrams.net" agent="Mozilla/5.0 (Windows NT 10.0; Win64; x64) AppleWebKit/537.36 (KHTML, like Gecko) Chrome/132.0.0.0 Safari/537.36" version="26.0.6">
  <diagram name="Página-1" id="3yAxuNh6LLSf3Z1xNYDW">
    <mxGraphModel dx="934" dy="541" grid="1" gridSize="10" guides="1" tooltips="1" connect="1" arrows="1" fold="1" page="1" pageScale="1" pageWidth="827" pageHeight="1169" math="0" shadow="0">
      <root>
        <mxCell id="0" />
        <mxCell id="1" parent="0" />
        <mxCell id="nEKBYBPZn2h1kR8uZoNl-4" value="" style="edgeStyle=orthogonalEdgeStyle;rounded=0;orthogonalLoop=1;jettySize=auto;html=1;" edge="1" parent="1" source="nEKBYBPZn2h1kR8uZoNl-2" target="nEKBYBPZn2h1kR8uZoNl-3">
          <mxGeometry relative="1" as="geometry" />
        </mxCell>
        <mxCell id="nEKBYBPZn2h1kR8uZoNl-2" value="Inicio del proceso" style="strokeWidth=2;html=1;shape=mxgraph.flowchart.start_1;whiteSpace=wrap;" vertex="1" parent="1">
          <mxGeometry x="300" y="40" width="100" height="60" as="geometry" />
        </mxCell>
        <mxCell id="nEKBYBPZn2h1kR8uZoNl-6" value="" style="edgeStyle=orthogonalEdgeStyle;rounded=0;orthogonalLoop=1;jettySize=auto;html=1;" edge="1" parent="1" source="nEKBYBPZn2h1kR8uZoNl-3" target="nEKBYBPZn2h1kR8uZoNl-5">
          <mxGeometry relative="1" as="geometry" />
        </mxCell>
        <mxCell id="nEKBYBPZn2h1kR8uZoNl-3" value="Indica una acción o tarea a realizar&amp;nbsp;" style="rounded=1;whiteSpace=wrap;html=1;absoluteArcSize=1;arcSize=14;strokeWidth=2;" vertex="1" parent="1">
          <mxGeometry x="275" y="170" width="150" height="100" as="geometry" />
        </mxCell>
        <mxCell id="nEKBYBPZn2h1kR8uZoNl-5" value="Decisión o punto de Bifurcación&amp;nbsp;" style="rhombus;whiteSpace=wrap;html=1;rounded=1;arcSize=14;strokeWidth=2;" vertex="1" parent="1">
          <mxGeometry x="270" y="360" width="160" height="80" as="geometry" />
        </mxCell>
        <mxCell id="nEKBYBPZn2h1kR8uZoNl-8" value="Preparar face" style="text;html=1;align=center;verticalAlign=middle;resizable=0;points=[];autosize=1;strokeColor=none;fillColor=none;" vertex="1" parent="1">
          <mxGeometry x="660" y="48" width="100" height="30" as="geometry" />
        </mxCell>
        <mxCell id="nEKBYBPZn2h1kR8uZoNl-9" value="inicio: decidir hacer cafe" style="text;html=1;align=center;verticalAlign=middle;resizable=0;points=[];autosize=1;strokeColor=none;fillColor=none;" vertex="1" parent="1">
          <mxGeometry x="595" y="128" width="150" height="30" as="geometry" />
        </mxCell>
        <mxCell id="nEKBYBPZn2h1kR8uZoNl-10" value="Verificar si hay cafe" style="text;html=1;align=center;verticalAlign=middle;resizable=0;points=[];autosize=1;strokeColor=none;fillColor=none;" vertex="1" parent="1">
          <mxGeometry x="595" y="158" width="130" height="30" as="geometry" />
        </mxCell>
        <mxCell id="nEKBYBPZn2h1kR8uZoNl-11" value="Si si, continuar" style="text;html=1;align=center;verticalAlign=middle;resizable=0;points=[];autosize=1;strokeColor=none;fillColor=none;" vertex="1" parent="1">
          <mxGeometry x="630" y="188" width="100" height="30" as="geometry" />
        </mxCell>
        <mxCell id="nEKBYBPZn2h1kR8uZoNl-12" value="Si no, comprar cafe" style="text;html=1;align=center;verticalAlign=middle;resizable=0;points=[];autosize=1;strokeColor=none;fillColor=none;" vertex="1" parent="1">
          <mxGeometry x="630" y="218" width="130" height="30" as="geometry" />
        </mxCell>
        <mxCell id="nEKBYBPZn2h1kR8uZoNl-14" value="Hervir Agua" style="text;html=1;align=center;verticalAlign=middle;resizable=0;points=[];autosize=1;strokeColor=none;fillColor=none;" vertex="1" parent="1">
          <mxGeometry x="575" y="248" width="90" height="30" as="geometry" />
        </mxCell>
        <mxCell id="nEKBYBPZn2h1kR8uZoNl-15" value="Colocar cafe en la cafetera o filtro" style="text;html=1;align=center;verticalAlign=middle;resizable=0;points=[];autosize=1;strokeColor=none;fillColor=none;" vertex="1" parent="1">
          <mxGeometry x="580" y="278" width="200" height="30" as="geometry" />
        </mxCell>
        <mxCell id="nEKBYBPZn2h1kR8uZoNl-16" value="Agregar agua caliente al cafe&amp;nbsp;" style="text;html=1;align=center;verticalAlign=middle;resizable=0;points=[];autosize=1;strokeColor=none;fillColor=none;" vertex="1" parent="1">
          <mxGeometry x="580" y="308" width="180" height="30" as="geometry" />
        </mxCell>
        <mxCell id="nEKBYBPZn2h1kR8uZoNl-17" value="Servir el cafe en la taza" style="text;html=1;align=center;verticalAlign=middle;resizable=0;points=[];autosize=1;strokeColor=none;fillColor=none;" vertex="1" parent="1">
          <mxGeometry x="580" y="338" width="150" height="30" as="geometry" />
        </mxCell>
        <mxCell id="nEKBYBPZn2h1kR8uZoNl-18" value="Fin: disfrutar del cafeç" style="text;html=1;align=center;verticalAlign=middle;resizable=0;points=[];autosize=1;strokeColor=none;fillColor=none;" vertex="1" parent="1">
          <mxGeometry x="580" y="368" width="140" height="30" as="geometry" />
        </mxCell>
        <mxCell id="nEKBYBPZn2h1kR8uZoNl-40" value="" style="edgeStyle=orthogonalEdgeStyle;rounded=0;orthogonalLoop=1;jettySize=auto;html=1;" edge="1" parent="1" source="nEKBYBPZn2h1kR8uZoNl-20" target="nEKBYBPZn2h1kR8uZoNl-21">
          <mxGeometry relative="1" as="geometry" />
        </mxCell>
        <mxCell id="nEKBYBPZn2h1kR8uZoNl-20" value="&lt;span style=&quot;text-wrap-mode: nowrap;&quot;&gt;inicio: decidir hacer cafe&lt;/span&gt;" style="strokeWidth=2;html=1;shape=mxgraph.flowchart.start_1;whiteSpace=wrap;" vertex="1" parent="1">
          <mxGeometry x="955" y="40" width="170" height="60" as="geometry" />
        </mxCell>
        <mxCell id="nEKBYBPZn2h1kR8uZoNl-26" value="" style="edgeStyle=orthogonalEdgeStyle;rounded=0;orthogonalLoop=1;jettySize=auto;html=1;" edge="1" parent="1" source="nEKBYBPZn2h1kR8uZoNl-21">
          <mxGeometry relative="1" as="geometry">
            <mxPoint x="870.0000000000002" y="317" as="targetPoint" />
          </mxGeometry>
        </mxCell>
        <mxCell id="nEKBYBPZn2h1kR8uZoNl-27" value="No hay face" style="edgeLabel;html=1;align=center;verticalAlign=middle;resizable=0;points=[];" vertex="1" connectable="0" parent="nEKBYBPZn2h1kR8uZoNl-26">
          <mxGeometry x="0.1662" y="-1" relative="1" as="geometry">
            <mxPoint as="offset" />
          </mxGeometry>
        </mxCell>
        <mxCell id="nEKBYBPZn2h1kR8uZoNl-29" value="" style="edgeStyle=orthogonalEdgeStyle;rounded=0;orthogonalLoop=1;jettySize=auto;html=1;" edge="1" parent="1" source="nEKBYBPZn2h1kR8uZoNl-21" target="nEKBYBPZn2h1kR8uZoNl-28">
          <mxGeometry relative="1" as="geometry" />
        </mxCell>
        <mxCell id="nEKBYBPZn2h1kR8uZoNl-30" value="Si hay cafe" style="edgeLabel;html=1;align=center;verticalAlign=middle;resizable=0;points=[];" vertex="1" connectable="0" parent="nEKBYBPZn2h1kR8uZoNl-29">
          <mxGeometry x="0.3077" y="1" relative="1" as="geometry">
            <mxPoint as="offset" />
          </mxGeometry>
        </mxCell>
        <mxCell id="nEKBYBPZn2h1kR8uZoNl-21" value="¿hay cafe?" style="strokeWidth=2;html=1;shape=mxgraph.flowchart.decision;whiteSpace=wrap;" vertex="1" parent="1">
          <mxGeometry x="950" y="140" width="180" height="100" as="geometry" />
        </mxCell>
        <mxCell id="nEKBYBPZn2h1kR8uZoNl-25" value="Ir a comprar café" style="whiteSpace=wrap;html=1;strokeWidth=2;" vertex="1" parent="1">
          <mxGeometry x="820" y="317" width="120" height="60" as="geometry" />
        </mxCell>
        <mxCell id="nEKBYBPZn2h1kR8uZoNl-33" value="" style="edgeStyle=orthogonalEdgeStyle;rounded=0;orthogonalLoop=1;jettySize=auto;html=1;" edge="1" parent="1" source="nEKBYBPZn2h1kR8uZoNl-28" target="nEKBYBPZn2h1kR8uZoNl-32">
          <mxGeometry relative="1" as="geometry" />
        </mxCell>
        <mxCell id="nEKBYBPZn2h1kR8uZoNl-28" value="&lt;span style=&quot;text-wrap-mode: nowrap;&quot;&gt;Hervir Agua&lt;/span&gt;" style="whiteSpace=wrap;html=1;strokeWidth=2;" vertex="1" parent="1">
          <mxGeometry x="1170" y="317" width="120" height="60" as="geometry" />
        </mxCell>
        <mxCell id="nEKBYBPZn2h1kR8uZoNl-35" value="" style="edgeStyle=orthogonalEdgeStyle;rounded=0;orthogonalLoop=1;jettySize=auto;html=1;" edge="1" parent="1" source="nEKBYBPZn2h1kR8uZoNl-32" target="nEKBYBPZn2h1kR8uZoNl-34">
          <mxGeometry relative="1" as="geometry" />
        </mxCell>
        <mxCell id="nEKBYBPZn2h1kR8uZoNl-32" value="&lt;span style=&quot;text-wrap-mode: nowrap;&quot;&gt;Colocar cafe en la cafetera o filtro&lt;/span&gt;" style="whiteSpace=wrap;html=1;strokeWidth=2;" vertex="1" parent="1">
          <mxGeometry x="1120" y="467" width="220" height="60" as="geometry" />
        </mxCell>
        <mxCell id="nEKBYBPZn2h1kR8uZoNl-37" value="" style="edgeStyle=orthogonalEdgeStyle;rounded=0;orthogonalLoop=1;jettySize=auto;html=1;" edge="1" parent="1" source="nEKBYBPZn2h1kR8uZoNl-34" target="nEKBYBPZn2h1kR8uZoNl-36">
          <mxGeometry relative="1" as="geometry" />
        </mxCell>
        <mxCell id="nEKBYBPZn2h1kR8uZoNl-34" value="&lt;span style=&quot;text-wrap-mode: nowrap;&quot;&gt;Agregar agua caliente al cafe&amp;nbsp;&lt;/span&gt;" style="whiteSpace=wrap;html=1;strokeWidth=2;" vertex="1" parent="1">
          <mxGeometry x="1120" y="607" width="220" height="60" as="geometry" />
        </mxCell>
        <mxCell id="nEKBYBPZn2h1kR8uZoNl-39" value="" style="edgeStyle=orthogonalEdgeStyle;rounded=0;orthogonalLoop=1;jettySize=auto;html=1;" edge="1" parent="1" source="nEKBYBPZn2h1kR8uZoNl-36" target="nEKBYBPZn2h1kR8uZoNl-38">
          <mxGeometry relative="1" as="geometry" />
        </mxCell>
        <mxCell id="nEKBYBPZn2h1kR8uZoNl-36" value="&lt;span style=&quot;text-wrap-mode: nowrap;&quot;&gt;Servir el cafe en la taza&lt;/span&gt;" style="whiteSpace=wrap;html=1;strokeWidth=2;" vertex="1" parent="1">
          <mxGeometry x="1155" y="747" width="150" height="60" as="geometry" />
        </mxCell>
        <mxCell id="nEKBYBPZn2h1kR8uZoNl-38" value="&lt;span style=&quot;text-wrap-mode: nowrap;&quot;&gt;Fin: disfrutar del cafeç&lt;/span&gt;" style="strokeWidth=2;html=1;shape=mxgraph.flowchart.terminator;whiteSpace=wrap;" vertex="1" parent="1">
          <mxGeometry x="1155" y="857" width="150" height="60" as="geometry" />
        </mxCell>
        <mxCell id="nEKBYBPZn2h1kR8uZoNl-43" value="" style="edgeStyle=orthogonalEdgeStyle;rounded=0;orthogonalLoop=1;jettySize=auto;html=1;" edge="1" parent="1" source="nEKBYBPZn2h1kR8uZoNl-41" target="nEKBYBPZn2h1kR8uZoNl-42">
          <mxGeometry relative="1" as="geometry" />
        </mxCell>
        <mxCell id="nEKBYBPZn2h1kR8uZoNl-41" value="Abrir sitio web" style="strokeWidth=2;html=1;shape=mxgraph.flowchart.start_1;whiteSpace=wrap;" vertex="1" parent="1">
          <mxGeometry x="1675" y="100" width="140" height="60" as="geometry" />
        </mxCell>
        <mxCell id="nEKBYBPZn2h1kR8uZoNl-45" value="" style="edgeStyle=orthogonalEdgeStyle;rounded=0;orthogonalLoop=1;jettySize=auto;html=1;" edge="1" parent="1" source="nEKBYBPZn2h1kR8uZoNl-42" target="nEKBYBPZn2h1kR8uZoNl-44">
          <mxGeometry relative="1" as="geometry" />
        </mxCell>
        <mxCell id="nEKBYBPZn2h1kR8uZoNl-42" value="Click en olvidaste la contraseña" style="whiteSpace=wrap;html=1;strokeWidth=2;" vertex="1" parent="1">
          <mxGeometry x="1685" y="240" width="120" height="60" as="geometry" />
        </mxCell>
        <mxCell id="nEKBYBPZn2h1kR8uZoNl-47" value="" style="edgeStyle=orthogonalEdgeStyle;rounded=0;orthogonalLoop=1;jettySize=auto;html=1;" edge="1" parent="1" source="nEKBYBPZn2h1kR8uZoNl-44" target="nEKBYBPZn2h1kR8uZoNl-46">
          <mxGeometry relative="1" as="geometry" />
        </mxCell>
        <mxCell id="nEKBYBPZn2h1kR8uZoNl-44" value="Ingreasar el correco electronico&amp;nbsp;" style="whiteSpace=wrap;html=1;strokeWidth=2;" vertex="1" parent="1">
          <mxGeometry x="1685" y="380" width="120" height="60" as="geometry" />
        </mxCell>
        <mxCell id="nEKBYBPZn2h1kR8uZoNl-49" value="" style="edgeStyle=orthogonalEdgeStyle;rounded=0;orthogonalLoop=1;jettySize=auto;html=1;" edge="1" parent="1" source="nEKBYBPZn2h1kR8uZoNl-46" target="nEKBYBPZn2h1kR8uZoNl-48">
          <mxGeometry relative="1" as="geometry">
            <Array as="points">
              <mxPoint x="1590" y="547" />
            </Array>
          </mxGeometry>
        </mxCell>
        <mxCell id="nEKBYBPZn2h1kR8uZoNl-50" value="NO es valido&amp;nbsp;" style="edgeLabel;html=1;align=center;verticalAlign=middle;resizable=0;points=[];" vertex="1" connectable="0" parent="nEKBYBPZn2h1kR8uZoNl-49">
          <mxGeometry x="0.3595" y="-2" relative="1" as="geometry">
            <mxPoint as="offset" />
          </mxGeometry>
        </mxCell>
        <mxCell id="nEKBYBPZn2h1kR8uZoNl-60" style="edgeStyle=orthogonalEdgeStyle;rounded=0;orthogonalLoop=1;jettySize=auto;html=1;exitX=1;exitY=0.5;exitDx=0;exitDy=0;" edge="1" parent="1" source="nEKBYBPZn2h1kR8uZoNl-46" target="nEKBYBPZn2h1kR8uZoNl-59">
          <mxGeometry relative="1" as="geometry" />
        </mxCell>
        <mxCell id="nEKBYBPZn2h1kR8uZoNl-46" value="¿El correo es valido?&amp;nbsp;" style="rhombus;whiteSpace=wrap;html=1;strokeWidth=2;" vertex="1" parent="1">
          <mxGeometry x="1670" y="507" width="150" height="80" as="geometry" />
        </mxCell>
        <mxCell id="nEKBYBPZn2h1kR8uZoNl-62" style="edgeStyle=orthogonalEdgeStyle;rounded=0;orthogonalLoop=1;jettySize=auto;html=1;" edge="1" parent="1" source="nEKBYBPZn2h1kR8uZoNl-48">
          <mxGeometry relative="1" as="geometry">
            <mxPoint x="1680" y="410" as="targetPoint" />
            <Array as="points">
              <mxPoint x="1490" y="677" />
              <mxPoint x="1490" y="410" />
            </Array>
          </mxGeometry>
        </mxCell>
        <mxCell id="nEKBYBPZn2h1kR8uZoNl-48" value="Mostrar el mensaje de error" style="whiteSpace=wrap;html=1;strokeWidth=2;" vertex="1" parent="1">
          <mxGeometry x="1510" y="647" width="160" height="60" as="geometry" />
        </mxCell>
        <mxCell id="nEKBYBPZn2h1kR8uZoNl-55" value="" style="edgeStyle=orthogonalEdgeStyle;rounded=0;orthogonalLoop=1;jettySize=auto;html=1;" edge="1" parent="1" source="nEKBYBPZn2h1kR8uZoNl-51" target="nEKBYBPZn2h1kR8uZoNl-54">
          <mxGeometry relative="1" as="geometry" />
        </mxCell>
        <mxCell id="nEKBYBPZn2h1kR8uZoNl-51" value="Abrir el corre y hacer click en el enlace recibido" style="whiteSpace=wrap;html=1;strokeWidth=2;" vertex="1" parent="1">
          <mxGeometry x="1880" y="760" width="120" height="60" as="geometry" />
        </mxCell>
        <mxCell id="nEKBYBPZn2h1kR8uZoNl-57" value="" style="edgeStyle=orthogonalEdgeStyle;rounded=0;orthogonalLoop=1;jettySize=auto;html=1;" edge="1" parent="1" source="nEKBYBPZn2h1kR8uZoNl-54" target="nEKBYBPZn2h1kR8uZoNl-56">
          <mxGeometry relative="1" as="geometry" />
        </mxCell>
        <mxCell id="nEKBYBPZn2h1kR8uZoNl-54" value="Crear una nueva contraseña" style="whiteSpace=wrap;html=1;strokeWidth=2;" vertex="1" parent="1">
          <mxGeometry x="1880" y="900" width="120" height="60" as="geometry" />
        </mxCell>
        <mxCell id="nEKBYBPZn2h1kR8uZoNl-56" value="Contraseña restablecida" style="strokeWidth=2;html=1;shape=mxgraph.flowchart.terminator;whiteSpace=wrap;" vertex="1" parent="1">
          <mxGeometry x="1890" y="1005" width="100" height="60" as="geometry" />
        </mxCell>
        <mxCell id="nEKBYBPZn2h1kR8uZoNl-58" value="&lt;b&gt;&lt;font style=&quot;font-size: 18px;&quot;&gt;Recuperar una contraseña olvidada&lt;/font&gt;&lt;/b&gt;" style="text;html=1;align=center;verticalAlign=middle;resizable=0;points=[];autosize=1;strokeColor=none;fillColor=none;" vertex="1" parent="1">
          <mxGeometry x="1580" y="30" width="330" height="40" as="geometry" />
        </mxCell>
        <mxCell id="nEKBYBPZn2h1kR8uZoNl-61" style="edgeStyle=orthogonalEdgeStyle;rounded=0;orthogonalLoop=1;jettySize=auto;html=1;entryX=0.5;entryY=0;entryDx=0;entryDy=0;" edge="1" parent="1" source="nEKBYBPZn2h1kR8uZoNl-59" target="nEKBYBPZn2h1kR8uZoNl-51">
          <mxGeometry relative="1" as="geometry" />
        </mxCell>
        <mxCell id="nEKBYBPZn2h1kR8uZoNl-59" value="El sistema envía el enlace de correo" style="whiteSpace=wrap;html=1;strokeWidth=2;" vertex="1" parent="1">
          <mxGeometry x="1880" y="630" width="120" height="60" as="geometry" />
        </mxCell>
      </root>
    </mxGraphModel>
  </diagram>
</mxfile>
